<mxfile host="app.diagrams.net" modified="2024-05-05T12:30:39.148Z" agent="Mozilla/5.0 (Windows NT 10.0; Win64; x64) AppleWebKit/537.36 (KHTML, like Gecko) Chrome/124.0.0.0 Safari/537.36" etag="KMjuRS-XjlYL_6uRlaMi" version="24.0.1" type="device">
  <diagram name="1 oldal" id="Fu4hLFUh1KVYdfKpGeLN">
    <mxGraphModel dx="1646" dy="405" grid="1" gridSize="10" guides="1" tooltips="1" connect="1" arrows="1" fold="1" page="1" pageScale="1" pageWidth="827" pageHeight="1169" math="0" shadow="0">
      <root>
        <mxCell id="0" />
        <mxCell id="1" parent="0" />
        <mxCell id="RZPR3kIjlsMWi17amMFl-12" style="rounded=0;orthogonalLoop=1;jettySize=auto;html=1;exitX=0;exitY=0.5;exitDx=0;exitDy=0;entryX=0.5;entryY=1;entryDx=0;entryDy=0;endArrow=classic;endFill=1;fontFamily=Calibri;fontColor=#546248;fillColor=#d5e8d4;strokeColor=#546248;edgeStyle=orthogonalEdgeStyle;" parent="1" source="1YvyH126ldd-et75dgN8-4" target="1YvyH126ldd-et75dgN8-3" edge="1">
          <mxGeometry relative="1" as="geometry">
            <mxPoint x="110" y="445" as="targetPoint" />
          </mxGeometry>
        </mxCell>
        <mxCell id="RZPR3kIjlsMWi17amMFl-19" style="rounded=0;orthogonalLoop=1;jettySize=auto;html=1;entryX=0;entryY=0.5;entryDx=0;entryDy=0;endArrow=none;endFill=0;fontFamily=Calibri;fontColor=#546248;fillColor=#d5e8d4;strokeColor=#546248;" parent="1" source="qL_LGEdb0NVFimi9Nnbc-1" target="UofxTASj_F71TdPfPJub-4" edge="1">
          <mxGeometry relative="1" as="geometry">
            <mxPoint x="520" y="435" as="targetPoint" />
          </mxGeometry>
        </mxCell>
        <mxCell id="RZPR3kIjlsMWi17amMFl-20" style="rounded=0;orthogonalLoop=1;jettySize=auto;html=1;exitX=1;exitY=0.25;exitDx=0;exitDy=0;entryX=0;entryY=0.5;entryDx=0;entryDy=0;endArrow=none;endFill=0;fontFamily=Calibri;fontColor=#546248;fillColor=#d5e8d4;strokeColor=#546248;" parent="1" source="qL_LGEdb0NVFimi9Nnbc-1" target="qL_LGEdb0NVFimi9Nnbc-32" edge="1">
          <mxGeometry relative="1" as="geometry" />
        </mxCell>
        <mxCell id="RZPR3kIjlsMWi17amMFl-21" style="rounded=0;orthogonalLoop=1;jettySize=auto;html=1;exitX=1;exitY=0.75;exitDx=0;exitDy=0;entryX=0;entryY=0.5;entryDx=0;entryDy=0;endArrow=none;endFill=0;fontFamily=Calibri;fontColor=#546248;fillColor=#d5e8d4;strokeColor=#546248;" parent="1" source="qL_LGEdb0NVFimi9Nnbc-1" target="qL_LGEdb0NVFimi9Nnbc-30" edge="1">
          <mxGeometry relative="1" as="geometry" />
        </mxCell>
        <mxCell id="RZPR3kIjlsMWi17amMFl-39" style="rounded=0;orthogonalLoop=1;jettySize=auto;html=1;exitX=1;exitY=1;exitDx=0;exitDy=0;entryX=0;entryY=0.5;entryDx=0;entryDy=0;endArrow=none;endFill=0;startArrow=classic;startFill=1;fontFamily=Calibri;fontColor=#546248;fillColor=#d5e8d4;strokeColor=#546248;" parent="1" source="qL_LGEdb0NVFimi9Nnbc-1" target="RZPR3kIjlsMWi17amMFl-9" edge="1">
          <mxGeometry relative="1" as="geometry" />
        </mxCell>
        <mxCell id="qL_LGEdb0NVFimi9Nnbc-1" value="Könyv" style="rounded=0;whiteSpace=wrap;html=1;fontFamily=Calibri;fillColor=#d5e8d4;strokeColor=#546248;" parent="1" vertex="1">
          <mxGeometry x="330" y="390" width="120" height="60" as="geometry" />
        </mxCell>
        <mxCell id="qL_LGEdb0NVFimi9Nnbc-10" style="edgeStyle=orthogonalEdgeStyle;rounded=0;orthogonalLoop=1;jettySize=auto;html=1;exitX=0.25;exitY=1;exitDx=0;exitDy=0;entryX=0.5;entryY=0;entryDx=0;entryDy=0;endArrow=none;endFill=0;fontFamily=Calibri;fontColor=#546248;fillColor=#d5e8d4;strokeColor=#546248;" parent="1" source="qL_LGEdb0NVFimi9Nnbc-2" target="qL_LGEdb0NVFimi9Nnbc-7" edge="1">
          <mxGeometry relative="1" as="geometry">
            <Array as="points">
              <mxPoint x="360" y="250" />
              <mxPoint x="290" y="250" />
            </Array>
          </mxGeometry>
        </mxCell>
        <mxCell id="qL_LGEdb0NVFimi9Nnbc-17" style="edgeStyle=orthogonalEdgeStyle;rounded=0;orthogonalLoop=1;jettySize=auto;html=1;exitX=0.75;exitY=1;exitDx=0;exitDy=0;entryX=0.5;entryY=0;entryDx=0;entryDy=0;endArrow=none;endFill=0;startArrow=classic;startFill=1;fontFamily=Calibri;fontColor=#546248;fillColor=#d5e8d4;strokeColor=#546248;" parent="1" source="qL_LGEdb0NVFimi9Nnbc-2" target="qL_LGEdb0NVFimi9Nnbc-16" edge="1">
          <mxGeometry relative="1" as="geometry">
            <Array as="points">
              <mxPoint x="420" y="250" />
              <mxPoint x="490" y="250" />
            </Array>
          </mxGeometry>
        </mxCell>
        <mxCell id="qL_LGEdb0NVFimi9Nnbc-2" value="Vásárló" style="rounded=0;whiteSpace=wrap;html=1;fontFamily=Calibri;fillColor=#d5e8d4;strokeColor=#546248;" parent="1" vertex="1">
          <mxGeometry x="330" y="180" width="120" height="60" as="geometry" />
        </mxCell>
        <mxCell id="qL_LGEdb0NVFimi9Nnbc-14" style="edgeStyle=orthogonalEdgeStyle;rounded=0;orthogonalLoop=1;jettySize=auto;html=1;exitX=0.5;exitY=0;exitDx=0;exitDy=0;entryX=0.5;entryY=1;entryDx=0;entryDy=0;endArrow=none;endFill=0;startArrow=classic;startFill=1;fontFamily=Calibri;fontColor=#546248;fillColor=#d5e8d4;strokeColor=#546248;" parent="1" source="qL_LGEdb0NVFimi9Nnbc-3" target="qL_LGEdb0NVFimi9Nnbc-9" edge="1">
          <mxGeometry relative="1" as="geometry" />
        </mxCell>
        <mxCell id="RZPR3kIjlsMWi17amMFl-36" style="rounded=0;orthogonalLoop=1;jettySize=auto;html=1;exitX=0;exitY=0.75;exitDx=0;exitDy=0;entryX=1;entryY=0.5;entryDx=0;entryDy=0;endArrow=none;endFill=0;fontFamily=Calibri;fontColor=#546248;fillColor=#d5e8d4;strokeColor=#546248;" parent="1" source="qL_LGEdb0NVFimi9Nnbc-3" target="qL_LGEdb0NVFimi9Nnbc-24" edge="1">
          <mxGeometry relative="1" as="geometry" />
        </mxCell>
        <mxCell id="qL_LGEdb0NVFimi9Nnbc-3" value="Áruház" style="rounded=0;whiteSpace=wrap;html=1;fontFamily=Calibri;fillColor=#d5e8d4;strokeColor=#546248;" parent="1" vertex="1">
          <mxGeometry x="330" y="570" width="120" height="60" as="geometry" />
        </mxCell>
        <mxCell id="qL_LGEdb0NVFimi9Nnbc-12" style="rounded=0;orthogonalLoop=1;jettySize=auto;html=1;exitX=0;exitY=0.75;exitDx=0;exitDy=0;entryX=1;entryY=0.5;entryDx=0;entryDy=0;endArrow=none;endFill=0;edgeStyle=orthogonalEdgeStyle;startArrow=none;startFill=0;fontFamily=Calibri;fontColor=#546248;fillColor=#d5e8d4;strokeColor=#546248;" parent="1" source="qL_LGEdb0NVFimi9Nnbc-5" target="qL_LGEdb0NVFimi9Nnbc-8" edge="1">
          <mxGeometry relative="1" as="geometry" />
        </mxCell>
        <mxCell id="RZPR3kIjlsMWi17amMFl-31" style="rounded=0;orthogonalLoop=1;jettySize=auto;html=1;exitX=0;exitY=0.25;exitDx=0;exitDy=0;entryX=1;entryY=0.5;entryDx=0;entryDy=0;endArrow=none;endFill=0;edgeStyle=orthogonalEdgeStyle;fontFamily=Calibri;fontColor=#546248;fillColor=#d5e8d4;strokeColor=#546248;" parent="1" source="qL_LGEdb0NVFimi9Nnbc-5" target="RZPR3kIjlsMWi17amMFl-8" edge="1">
          <mxGeometry relative="1" as="geometry" />
        </mxCell>
        <mxCell id="qL_LGEdb0NVFimi9Nnbc-5" value="Admin" style="rounded=0;whiteSpace=wrap;html=1;fontFamily=Calibri;fillColor=#d5e8d4;strokeColor=#546248;" parent="1" vertex="1">
          <mxGeometry x="650" y="570" width="120" height="60" as="geometry" />
        </mxCell>
        <mxCell id="qL_LGEdb0NVFimi9Nnbc-11" style="edgeStyle=orthogonalEdgeStyle;rounded=0;orthogonalLoop=1;jettySize=auto;html=1;exitX=0.5;exitY=1;exitDx=0;exitDy=0;entryX=0.25;entryY=0;entryDx=0;entryDy=0;fontFamily=Calibri;fontColor=#546248;fillColor=#d5e8d4;strokeColor=#546248;" parent="1" source="qL_LGEdb0NVFimi9Nnbc-7" target="qL_LGEdb0NVFimi9Nnbc-1" edge="1">
          <mxGeometry relative="1" as="geometry">
            <mxPoint x="360" y="330.0000000000001" as="targetPoint" />
            <Array as="points">
              <mxPoint x="290" y="320" />
              <mxPoint x="360" y="320" />
            </Array>
          </mxGeometry>
        </mxCell>
        <mxCell id="qL_LGEdb0NVFimi9Nnbc-7" value="Vásárol" style="rhombus;whiteSpace=wrap;html=1;fontFamily=Calibri;fillColor=#d5e8d4;strokeColor=#546248;" parent="1" vertex="1">
          <mxGeometry x="230" y="255" width="120" height="60" as="geometry" />
        </mxCell>
        <mxCell id="qL_LGEdb0NVFimi9Nnbc-13" style="rounded=0;orthogonalLoop=1;jettySize=auto;html=1;exitX=0;exitY=0.5;exitDx=0;exitDy=0;entryX=1;entryY=0.75;entryDx=0;entryDy=0;edgeStyle=orthogonalEdgeStyle;fontFamily=Calibri;fontColor=#546248;fillColor=#d5e8d4;strokeColor=#546248;" parent="1" source="qL_LGEdb0NVFimi9Nnbc-8" target="qL_LGEdb0NVFimi9Nnbc-3" edge="1">
          <mxGeometry relative="1" as="geometry" />
        </mxCell>
        <mxCell id="qL_LGEdb0NVFimi9Nnbc-8" value="Dolgozik" style="rhombus;whiteSpace=wrap;html=1;fontFamily=Calibri;fillColor=#d5e8d4;strokeColor=#546248;" parent="1" vertex="1">
          <mxGeometry x="490" y="620" width="120" height="60" as="geometry" />
        </mxCell>
        <mxCell id="qL_LGEdb0NVFimi9Nnbc-15" style="edgeStyle=orthogonalEdgeStyle;rounded=0;orthogonalLoop=1;jettySize=auto;html=1;exitX=0.5;exitY=0;exitDx=0;exitDy=0;entryX=0.5;entryY=1;entryDx=0;entryDy=0;fontFamily=Calibri;fontColor=#546248;fillColor=#d5e8d4;strokeColor=#546248;" parent="1" source="qL_LGEdb0NVFimi9Nnbc-9" target="qL_LGEdb0NVFimi9Nnbc-1" edge="1">
          <mxGeometry relative="1" as="geometry" />
        </mxCell>
        <mxCell id="qL_LGEdb0NVFimi9Nnbc-9" value="Készleten van" style="rhombus;whiteSpace=wrap;html=1;fontFamily=Calibri;fillColor=#d5e8d4;strokeColor=#546248;" parent="1" vertex="1">
          <mxGeometry x="330" y="480" width="120" height="60" as="geometry" />
        </mxCell>
        <mxCell id="qL_LGEdb0NVFimi9Nnbc-18" style="edgeStyle=orthogonalEdgeStyle;rounded=0;orthogonalLoop=1;jettySize=auto;html=1;exitX=0.5;exitY=1;exitDx=0;exitDy=0;entryX=0.75;entryY=0;entryDx=0;entryDy=0;fontFamily=Calibri;fontColor=#546248;fillColor=#d5e8d4;strokeColor=#546248;" parent="1" source="qL_LGEdb0NVFimi9Nnbc-16" target="qL_LGEdb0NVFimi9Nnbc-1" edge="1">
          <mxGeometry relative="1" as="geometry">
            <mxPoint x="420" y="330.0000000000001" as="targetPoint" />
            <Array as="points">
              <mxPoint x="490" y="320" />
              <mxPoint x="420" y="320" />
            </Array>
          </mxGeometry>
        </mxCell>
        <mxCell id="qL_LGEdb0NVFimi9Nnbc-16" value="Birtokol" style="rhombus;whiteSpace=wrap;html=1;fontFamily=Calibri;fillColor=#d5e8d4;strokeColor=#546248;" parent="1" vertex="1">
          <mxGeometry x="430" y="255" width="120" height="60" as="geometry" />
        </mxCell>
        <mxCell id="RZPR3kIjlsMWi17amMFl-11" style="rounded=0;orthogonalLoop=1;jettySize=auto;html=1;exitX=0.5;exitY=0;exitDx=0;exitDy=0;entryX=0.5;entryY=1;entryDx=0;entryDy=0;endArrow=none;endFill=0;fontFamily=Calibri;fontColor=#546248;fillColor=#d5e8d4;strokeColor=#546248;startArrow=none;startFill=0;" parent="1" source="1YvyH126ldd-et75dgN8-3" target="UofxTASj_F71TdPfPJub-2" edge="1">
          <mxGeometry relative="1" as="geometry">
            <mxPoint x="10" y="340" as="sourcePoint" />
            <mxPoint x="-10" y="290" as="targetPoint" />
          </mxGeometry>
        </mxCell>
        <mxCell id="qL_LGEdb0NVFimi9Nnbc-24" value="Cím" style="ellipse;whiteSpace=wrap;html=1;fontFamily=Calibri;fillColor=#d5e8d4;strokeColor=#546248;" parent="1" vertex="1">
          <mxGeometry x="220" y="600" width="80" height="50" as="geometry" />
        </mxCell>
        <mxCell id="RZPR3kIjlsMWi17amMFl-33" style="rounded=0;orthogonalLoop=1;jettySize=auto;html=1;exitX=0.5;exitY=0;exitDx=0;exitDy=0;entryX=0.75;entryY=1;entryDx=0;entryDy=0;endArrow=none;endFill=0;fontFamily=Calibri;fontColor=#546248;fillColor=#d5e8d4;strokeColor=#546248;" parent="1" source="qL_LGEdb0NVFimi9Nnbc-26" target="qL_LGEdb0NVFimi9Nnbc-3" edge="1">
          <mxGeometry relative="1" as="geometry" />
        </mxCell>
        <mxCell id="qL_LGEdb0NVFimi9Nnbc-26" value="Dolgozók száma" style="ellipse;whiteSpace=wrap;html=1;fontFamily=Calibri;fillColor=#d5e8d4;strokeColor=#546248;" parent="1" vertex="1">
          <mxGeometry x="400" y="650" width="80" height="50" as="geometry" />
        </mxCell>
        <mxCell id="RZPR3kIjlsMWi17amMFl-42" style="rounded=0;orthogonalLoop=1;jettySize=auto;html=1;exitX=1;exitY=0.5;exitDx=0;exitDy=0;entryX=0;entryY=0.75;entryDx=0;entryDy=0;endArrow=none;endFill=0;fontFamily=Calibri;fontColor=#546248;fillColor=#d5e8d4;strokeColor=#546248;" parent="1" source="qL_LGEdb0NVFimi9Nnbc-29" target="qL_LGEdb0NVFimi9Nnbc-1" edge="1">
          <mxGeometry relative="1" as="geometry" />
        </mxCell>
        <mxCell id="qL_LGEdb0NVFimi9Nnbc-29" value="Ár" style="ellipse;whiteSpace=wrap;html=1;fontFamily=Calibri;fillColor=#d5e8d4;strokeColor=#546248;" parent="1" vertex="1">
          <mxGeometry x="150" y="425" width="80" height="50" as="geometry" />
        </mxCell>
        <mxCell id="qL_LGEdb0NVFimi9Nnbc-30" value="Kiadó" style="ellipse;whiteSpace=wrap;html=1;fontFamily=Calibri;fillColor=#d5e8d4;strokeColor=#546248;" parent="1" vertex="1">
          <mxGeometry x="580" y="450" width="80" height="50" as="geometry" />
        </mxCell>
        <mxCell id="RZPR3kIjlsMWi17amMFl-45" style="rounded=0;orthogonalLoop=1;jettySize=auto;html=1;exitX=0;exitY=1;exitDx=0;exitDy=0;entryX=1;entryY=0;entryDx=0;entryDy=0;endArrow=none;endFill=0;fontFamily=Calibri;fontColor=#546248;fillColor=#d5e8d4;strokeColor=#546248;" parent="1" source="qL_LGEdb0NVFimi9Nnbc-31" target="qL_LGEdb0NVFimi9Nnbc-1" edge="1">
          <mxGeometry relative="1" as="geometry" />
        </mxCell>
        <mxCell id="qL_LGEdb0NVFimi9Nnbc-31" value="Kötet" style="ellipse;whiteSpace=wrap;html=1;fontFamily=Calibri;fillColor=#d5e8d4;strokeColor=#546248;" parent="1" vertex="1">
          <mxGeometry x="460" y="330" width="80" height="50" as="geometry" />
        </mxCell>
        <mxCell id="qL_LGEdb0NVFimi9Nnbc-32" value="Kiadás éve" style="ellipse;whiteSpace=wrap;html=1;fontFamily=Calibri;fillColor=#d5e8d4;strokeColor=#546248;" parent="1" vertex="1">
          <mxGeometry x="560" y="345" width="80" height="50" as="geometry" />
        </mxCell>
        <mxCell id="RZPR3kIjlsMWi17amMFl-43" style="rounded=0;orthogonalLoop=1;jettySize=auto;html=1;exitX=1;exitY=0.5;exitDx=0;exitDy=0;entryX=0;entryY=0.25;entryDx=0;entryDy=0;endArrow=none;endFill=0;fontFamily=Calibri;fontColor=#546248;fillColor=#d5e8d4;strokeColor=#546248;" parent="1" source="qL_LGEdb0NVFimi9Nnbc-33" target="qL_LGEdb0NVFimi9Nnbc-1" edge="1">
          <mxGeometry relative="1" as="geometry" />
        </mxCell>
        <mxCell id="qL_LGEdb0NVFimi9Nnbc-33" value="Méret" style="ellipse;whiteSpace=wrap;html=1;fontFamily=Calibri;fillColor=#d5e8d4;strokeColor=#546248;" parent="1" vertex="1">
          <mxGeometry x="140" y="360" width="80" height="50" as="geometry" />
        </mxCell>
        <mxCell id="RZPR3kIjlsMWi17amMFl-44" style="rounded=0;orthogonalLoop=1;jettySize=auto;html=1;exitX=1;exitY=1;exitDx=0;exitDy=0;entryX=0;entryY=0;entryDx=0;entryDy=0;endArrow=none;endFill=0;fontFamily=Calibri;fontColor=#546248;fillColor=#d5e8d4;strokeColor=#546248;" parent="1" source="qL_LGEdb0NVFimi9Nnbc-34" target="qL_LGEdb0NVFimi9Nnbc-1" edge="1">
          <mxGeometry relative="1" as="geometry" />
        </mxCell>
        <mxCell id="qL_LGEdb0NVFimi9Nnbc-34" value="Oldalszám" style="ellipse;whiteSpace=wrap;html=1;fontFamily=Calibri;fillColor=#d5e8d4;strokeColor=#546248;" parent="1" vertex="1">
          <mxGeometry x="240" y="330" width="80" height="50" as="geometry" />
        </mxCell>
        <mxCell id="RZPR3kIjlsMWi17amMFl-28" style="rounded=0;orthogonalLoop=1;jettySize=auto;html=1;exitX=1;exitY=1;exitDx=0;exitDy=0;entryX=0.25;entryY=0;entryDx=0;entryDy=0;endArrow=none;endFill=0;fontFamily=Calibri;fontColor=#546248;fillColor=#d5e8d4;strokeColor=#546248;" parent="1" source="qL_LGEdb0NVFimi9Nnbc-36" target="qL_LGEdb0NVFimi9Nnbc-2" edge="1">
          <mxGeometry relative="1" as="geometry" />
        </mxCell>
        <mxCell id="qL_LGEdb0NVFimi9Nnbc-36" value="&lt;u&gt;Email&lt;/u&gt;" style="ellipse;whiteSpace=wrap;html=1;fontFamily=Calibri;fillColor=#d5e8d4;strokeColor=#546248;" parent="1" vertex="1">
          <mxGeometry x="250" y="115" width="80" height="50" as="geometry" />
        </mxCell>
        <mxCell id="RZPR3kIjlsMWi17amMFl-29" style="rounded=0;orthogonalLoop=1;jettySize=auto;html=1;exitX=0.5;exitY=1;exitDx=0;exitDy=0;entryX=0.5;entryY=0;entryDx=0;entryDy=0;endArrow=none;endFill=0;fontFamily=Calibri;fontColor=#546248;fillColor=#d5e8d4;strokeColor=#546248;" parent="1" source="qL_LGEdb0NVFimi9Nnbc-37" target="qL_LGEdb0NVFimi9Nnbc-2" edge="1">
          <mxGeometry relative="1" as="geometry" />
        </mxCell>
        <mxCell id="qL_LGEdb0NVFimi9Nnbc-37" value="Jelszó" style="ellipse;whiteSpace=wrap;html=1;fontFamily=Calibri;fillColor=#d5e8d4;strokeColor=#546248;" parent="1" vertex="1">
          <mxGeometry x="350" y="115" width="80" height="50" as="geometry" />
        </mxCell>
        <mxCell id="RZPR3kIjlsMWi17amMFl-30" style="rounded=0;orthogonalLoop=1;jettySize=auto;html=1;exitX=0;exitY=1;exitDx=0;exitDy=0;entryX=0.75;entryY=0;entryDx=0;entryDy=0;endArrow=none;endFill=0;fontFamily=Calibri;fontColor=#546248;fillColor=#d5e8d4;strokeColor=#546248;" parent="1" source="qL_LGEdb0NVFimi9Nnbc-38" target="qL_LGEdb0NVFimi9Nnbc-2" edge="1">
          <mxGeometry relative="1" as="geometry" />
        </mxCell>
        <mxCell id="RZPR3kIjlsMWi17amMFl-53" style="rounded=0;orthogonalLoop=1;jettySize=auto;html=1;exitX=0;exitY=0;exitDx=0;exitDy=0;entryX=0.5;entryY=1;entryDx=0;entryDy=0;endArrow=none;endFill=0;fontFamily=Calibri;fontColor=#546248;fillColor=#d5e8d4;strokeColor=#546248;" parent="1" source="qL_LGEdb0NVFimi9Nnbc-38" target="RZPR3kIjlsMWi17amMFl-48" edge="1">
          <mxGeometry relative="1" as="geometry" />
        </mxCell>
        <mxCell id="RZPR3kIjlsMWi17amMFl-54" style="rounded=0;orthogonalLoop=1;jettySize=auto;html=1;exitX=0.5;exitY=0;exitDx=0;exitDy=0;entryX=0;entryY=1;entryDx=0;entryDy=0;endArrow=none;endFill=0;fontFamily=Calibri;fontColor=#546248;fillColor=#d5e8d4;strokeColor=#546248;" parent="1" source="qL_LGEdb0NVFimi9Nnbc-38" target="RZPR3kIjlsMWi17amMFl-49" edge="1">
          <mxGeometry relative="1" as="geometry" />
        </mxCell>
        <mxCell id="qL_LGEdb0NVFimi9Nnbc-38" value="Számlázási cím" style="ellipse;whiteSpace=wrap;html=1;fontFamily=Calibri;fillColor=#d5e8d4;strokeColor=#546248;" parent="1" vertex="1">
          <mxGeometry x="450" y="115" width="80" height="50" as="geometry" />
        </mxCell>
        <mxCell id="RZPR3kIjlsMWi17amMFl-24" style="rounded=0;orthogonalLoop=1;jettySize=auto;html=1;exitX=1;exitY=0.5;exitDx=0;exitDy=0;endArrow=none;endFill=0;fontFamily=Calibri;fontColor=#546248;fillColor=#d5e8d4;strokeColor=#546248;entryX=0;entryY=0.5;entryDx=0;entryDy=0;" parent="1" source="RZPR3kIjlsMWi17amMFl-1" target="qL_LGEdb0NVFimi9Nnbc-7" edge="1">
          <mxGeometry relative="1" as="geometry" />
        </mxCell>
        <mxCell id="RZPR3kIjlsMWi17amMFl-1" value="Összeg" style="ellipse;whiteSpace=wrap;html=1;fontFamily=Calibri;fillColor=#d5e8d4;strokeColor=#546248;" parent="1" vertex="1">
          <mxGeometry x="100" y="260" width="80" height="50" as="geometry" />
        </mxCell>
        <mxCell id="RZPR3kIjlsMWi17amMFl-37" style="rounded=0;orthogonalLoop=1;jettySize=auto;html=1;exitX=0.5;exitY=0;exitDx=0;exitDy=0;entryX=0.25;entryY=1;entryDx=0;entryDy=0;endArrow=none;endFill=0;fontFamily=Calibri;fontColor=#546248;fillColor=#d5e8d4;strokeColor=#546248;" parent="1" source="RZPR3kIjlsMWi17amMFl-4" target="qL_LGEdb0NVFimi9Nnbc-5" edge="1">
          <mxGeometry relative="1" as="geometry" />
        </mxCell>
        <mxCell id="RZPR3kIjlsMWi17amMFl-4" value="&lt;u&gt;Email&lt;/u&gt;" style="ellipse;whiteSpace=wrap;html=1;fontFamily=Calibri;fillColor=#d5e8d4;strokeColor=#546248;" parent="1" vertex="1">
          <mxGeometry x="625" y="650" width="80" height="50" as="geometry" />
        </mxCell>
        <mxCell id="RZPR3kIjlsMWi17amMFl-38" style="rounded=0;orthogonalLoop=1;jettySize=auto;html=1;exitX=0.5;exitY=0;exitDx=0;exitDy=0;entryX=0.75;entryY=1;entryDx=0;entryDy=0;endArrow=none;endFill=0;fontFamily=Calibri;fontColor=#546248;fillColor=#d5e8d4;strokeColor=#546248;" parent="1" source="RZPR3kIjlsMWi17amMFl-5" target="qL_LGEdb0NVFimi9Nnbc-5" edge="1">
          <mxGeometry relative="1" as="geometry" />
        </mxCell>
        <mxCell id="RZPR3kIjlsMWi17amMFl-5" value="Jelszó" style="ellipse;whiteSpace=wrap;html=1;fontFamily=Calibri;fillColor=#d5e8d4;strokeColor=#546248;" parent="1" vertex="1">
          <mxGeometry x="715" y="650" width="80" height="50" as="geometry" />
        </mxCell>
        <mxCell id="RZPR3kIjlsMWi17amMFl-67" style="rounded=0;orthogonalLoop=1;jettySize=auto;html=1;exitX=0.5;exitY=1;exitDx=0;exitDy=0;entryX=0.75;entryY=0;entryDx=0;entryDy=0;endArrow=none;endFill=0;strokeColor=#546248;" parent="1" source="RZPR3kIjlsMWi17amMFl-7" target="qL_LGEdb0NVFimi9Nnbc-5" edge="1">
          <mxGeometry relative="1" as="geometry" />
        </mxCell>
        <mxCell id="RZPR3kIjlsMWi17amMFl-7" value="Beosztás" style="ellipse;whiteSpace=wrap;html=1;fontFamily=Calibri;fillColor=#d5e8d4;strokeColor=#546248;" parent="1" vertex="1">
          <mxGeometry x="715" y="500" width="80" height="50" as="geometry" />
        </mxCell>
        <mxCell id="RZPR3kIjlsMWi17amMFl-32" style="rounded=0;orthogonalLoop=1;jettySize=auto;html=1;exitX=0;exitY=0.5;exitDx=0;exitDy=0;entryX=1;entryY=0.25;entryDx=0;entryDy=0;endArrow=classic;endFill=1;edgeStyle=orthogonalEdgeStyle;fontFamily=Calibri;fontColor=#546248;fillColor=#d5e8d4;strokeColor=#546248;" parent="1" source="RZPR3kIjlsMWi17amMFl-8" target="qL_LGEdb0NVFimi9Nnbc-3" edge="1">
          <mxGeometry relative="1" as="geometry" />
        </mxCell>
        <mxCell id="RZPR3kIjlsMWi17amMFl-8" value="Kezel" style="rhombus;whiteSpace=wrap;html=1;fontFamily=Calibri;fillColor=#d5e8d4;strokeColor=#546248;" parent="1" vertex="1">
          <mxGeometry x="490" y="555" width="120" height="60" as="geometry" />
        </mxCell>
        <mxCell id="RZPR3kIjlsMWi17amMFl-40" style="rounded=0;orthogonalLoop=1;jettySize=auto;html=1;exitX=1;exitY=0.5;exitDx=0;exitDy=0;entryX=0;entryY=0;entryDx=0;entryDy=0;endArrow=none;endFill=0;fontFamily=Calibri;fontColor=#546248;fillColor=#d5e8d4;strokeColor=#546248;" parent="1" source="RZPR3kIjlsMWi17amMFl-9" target="qL_LGEdb0NVFimi9Nnbc-5" edge="1">
          <mxGeometry relative="1" as="geometry" />
        </mxCell>
        <mxCell id="RZPR3kIjlsMWi17amMFl-9" value="Kezel" style="rhombus;whiteSpace=wrap;html=1;rotation=30;fontFamily=Calibri;fillColor=#d5e8d4;strokeColor=#546248;" parent="1" vertex="1">
          <mxGeometry x="490" y="480" width="120" height="60" as="geometry" />
        </mxCell>
        <mxCell id="RZPR3kIjlsMWi17amMFl-66" style="rounded=0;orthogonalLoop=1;jettySize=auto;html=1;exitX=0.5;exitY=1;exitDx=0;exitDy=0;entryX=0.25;entryY=0;entryDx=0;entryDy=0;endArrow=none;endFill=0;strokeColor=#546248;" parent="1" source="RZPR3kIjlsMWi17amMFl-15" target="qL_LGEdb0NVFimi9Nnbc-5" edge="1">
          <mxGeometry relative="1" as="geometry" />
        </mxCell>
        <mxCell id="RZPR3kIjlsMWi17amMFl-15" value="Kezdés időpontja" style="ellipse;whiteSpace=wrap;html=1;fontFamily=Calibri;fillColor=#d5e8d4;strokeColor=#546248;" parent="1" vertex="1">
          <mxGeometry x="625" y="500" width="80" height="50" as="geometry" />
        </mxCell>
        <mxCell id="RZPR3kIjlsMWi17amMFl-34" style="rounded=0;orthogonalLoop=1;jettySize=auto;html=1;exitX=0.5;exitY=0;exitDx=0;exitDy=0;entryX=0.25;entryY=1;entryDx=0;entryDy=0;endArrow=none;endFill=0;fontFamily=Calibri;fontColor=#546248;fillColor=#d5e8d4;strokeColor=#546248;" parent="1" source="RZPR3kIjlsMWi17amMFl-16" target="qL_LGEdb0NVFimi9Nnbc-3" edge="1">
          <mxGeometry relative="1" as="geometry" />
        </mxCell>
        <mxCell id="RZPR3kIjlsMWi17amMFl-16" value="&lt;u&gt;Áruház_id&lt;/u&gt;" style="ellipse;whiteSpace=wrap;html=1;fontFamily=Calibri;fillColor=#d5e8d4;strokeColor=#546248;" parent="1" vertex="1">
          <mxGeometry x="300" y="650" width="80" height="50" as="geometry" />
        </mxCell>
        <mxCell id="RZPR3kIjlsMWi17amMFl-22" style="rounded=0;orthogonalLoop=1;jettySize=auto;html=1;exitX=1;exitY=0;exitDx=0;exitDy=0;entryX=0.25;entryY=1;entryDx=0;entryDy=0;endArrow=none;endFill=0;fontFamily=Calibri;fontColor=#546248;fillColor=#d5e8d4;strokeColor=#546248;" parent="1" source="RZPR3kIjlsMWi17amMFl-17" target="qL_LGEdb0NVFimi9Nnbc-1" edge="1">
          <mxGeometry relative="1" as="geometry" />
        </mxCell>
        <mxCell id="RZPR3kIjlsMWi17amMFl-17" value="&lt;u&gt;Könyv_id&lt;/u&gt;" style="ellipse;whiteSpace=wrap;html=1;fontFamily=Calibri;fillColor=#d5e8d4;strokeColor=#546248;" parent="1" vertex="1">
          <mxGeometry x="270" y="460" width="80" height="50" as="geometry" />
        </mxCell>
        <mxCell id="RZPR3kIjlsMWi17amMFl-48" value="Irányítószám" style="ellipse;whiteSpace=wrap;html=1;fontFamily=Calibri;fillColor=#d5e8d4;strokeColor=#546248;" parent="1" vertex="1">
          <mxGeometry x="390" y="55" width="80" height="50" as="geometry" />
        </mxCell>
        <mxCell id="RZPR3kIjlsMWi17amMFl-49" value="Város" style="ellipse;whiteSpace=wrap;html=1;fontFamily=Calibri;fillColor=#d5e8d4;strokeColor=#546248;" parent="1" vertex="1">
          <mxGeometry x="480" y="55" width="80" height="50" as="geometry" />
        </mxCell>
        <mxCell id="RZPR3kIjlsMWi17amMFl-55" style="rounded=0;orthogonalLoop=1;jettySize=auto;html=1;exitX=0;exitY=0.5;exitDx=0;exitDy=0;entryX=1;entryY=0;entryDx=0;entryDy=0;endArrow=none;endFill=0;fontFamily=Calibri;fontColor=#546248;fillColor=#d5e8d4;strokeColor=#546248;" parent="1" source="RZPR3kIjlsMWi17amMFl-50" target="qL_LGEdb0NVFimi9Nnbc-38" edge="1">
          <mxGeometry relative="1" as="geometry" />
        </mxCell>
        <mxCell id="RZPR3kIjlsMWi17amMFl-50" value="Utca" style="ellipse;whiteSpace=wrap;html=1;fontFamily=Calibri;fillColor=#d5e8d4;strokeColor=#546248;" parent="1" vertex="1">
          <mxGeometry x="560" y="85" width="80" height="50" as="geometry" />
        </mxCell>
        <mxCell id="RZPR3kIjlsMWi17amMFl-56" style="rounded=0;orthogonalLoop=1;jettySize=auto;html=1;exitX=0;exitY=0.5;exitDx=0;exitDy=0;entryX=1;entryY=1;entryDx=0;entryDy=0;endArrow=none;endFill=0;fontFamily=Calibri;fontColor=#546248;fillColor=#d5e8d4;strokeColor=#546248;" parent="1" source="RZPR3kIjlsMWi17amMFl-51" target="qL_LGEdb0NVFimi9Nnbc-38" edge="1">
          <mxGeometry relative="1" as="geometry" />
        </mxCell>
        <mxCell id="RZPR3kIjlsMWi17amMFl-51" value="Házszám" style="ellipse;whiteSpace=wrap;html=1;fontFamily=Calibri;fillColor=#d5e8d4;strokeColor=#546248;" parent="1" vertex="1">
          <mxGeometry x="560" y="145" width="80" height="50" as="geometry" />
        </mxCell>
        <mxCell id="RZPR3kIjlsMWi17amMFl-57" style="rounded=0;orthogonalLoop=1;jettySize=auto;html=1;exitX=0.5;exitY=0;exitDx=0;exitDy=0;entryX=0.5;entryY=1;entryDx=0;entryDy=0;endArrow=none;endFill=0;fontFamily=Calibri;fontColor=#546248;fillColor=#d5e8d4;strokeColor=#546248;" parent="1" source="RZPR3kIjlsMWi17amMFl-52" target="qL_LGEdb0NVFimi9Nnbc-38" edge="1">
          <mxGeometry relative="1" as="geometry" />
        </mxCell>
        <mxCell id="RZPR3kIjlsMWi17amMFl-52" value="Megjegyzés" style="ellipse;whiteSpace=wrap;html=1;fontFamily=Calibri;fillColor=#d5e8d4;strokeColor=#546248;" parent="1" vertex="1">
          <mxGeometry x="460" y="185" width="80" height="50" as="geometry" />
        </mxCell>
        <mxCell id="RZPR3kIjlsMWi17amMFl-62" style="rounded=0;orthogonalLoop=1;jettySize=auto;html=1;exitX=1;exitY=1;exitDx=0;exitDy=0;entryX=0;entryY=0;entryDx=0;entryDy=0;endArrow=none;endFill=0;fontFamily=Calibri;fontColor=#546248;fillColor=#d5e8d4;strokeColor=#546248;" parent="1" source="RZPR3kIjlsMWi17amMFl-58" target="qL_LGEdb0NVFimi9Nnbc-24" edge="1">
          <mxGeometry relative="1" as="geometry" />
        </mxCell>
        <mxCell id="RZPR3kIjlsMWi17amMFl-58" value="Irányítószám" style="ellipse;whiteSpace=wrap;html=1;fontFamily=Calibri;fillColor=#d5e8d4;strokeColor=#546248;" parent="1" vertex="1">
          <mxGeometry x="150" y="540" width="80" height="50" as="geometry" />
        </mxCell>
        <mxCell id="RZPR3kIjlsMWi17amMFl-63" style="rounded=0;orthogonalLoop=1;jettySize=auto;html=1;exitX=1;exitY=0.5;exitDx=0;exitDy=0;entryX=0;entryY=0.5;entryDx=0;entryDy=0;endArrow=none;endFill=0;fontFamily=Calibri;fontColor=#546248;fillColor=#d5e8d4;strokeColor=#546248;" parent="1" source="RZPR3kIjlsMWi17amMFl-59" target="qL_LGEdb0NVFimi9Nnbc-24" edge="1">
          <mxGeometry relative="1" as="geometry" />
        </mxCell>
        <mxCell id="RZPR3kIjlsMWi17amMFl-59" value="Város" style="ellipse;whiteSpace=wrap;html=1;fontFamily=Calibri;fillColor=#d5e8d4;strokeColor=#546248;" parent="1" vertex="1">
          <mxGeometry x="100" y="600" width="80" height="50" as="geometry" />
        </mxCell>
        <mxCell id="RZPR3kIjlsMWi17amMFl-64" style="rounded=0;orthogonalLoop=1;jettySize=auto;html=1;exitX=1;exitY=0;exitDx=0;exitDy=0;entryX=0;entryY=1;entryDx=0;entryDy=0;endArrow=none;endFill=0;fontFamily=Calibri;fontColor=#546248;fillColor=#d5e8d4;strokeColor=#546248;" parent="1" source="RZPR3kIjlsMWi17amMFl-60" target="qL_LGEdb0NVFimi9Nnbc-24" edge="1">
          <mxGeometry relative="1" as="geometry" />
        </mxCell>
        <mxCell id="RZPR3kIjlsMWi17amMFl-60" value="Utca" style="ellipse;whiteSpace=wrap;html=1;fontFamily=Calibri;fillColor=#d5e8d4;strokeColor=#546248;" parent="1" vertex="1">
          <mxGeometry x="150" y="660" width="80" height="50" as="geometry" />
        </mxCell>
        <mxCell id="RZPR3kIjlsMWi17amMFl-65" style="rounded=0;orthogonalLoop=1;jettySize=auto;html=1;exitX=0.5;exitY=0;exitDx=0;exitDy=0;entryX=0.5;entryY=1;entryDx=0;entryDy=0;endArrow=none;endFill=0;fontFamily=Calibri;fontColor=#546248;fillColor=#d5e8d4;strokeColor=#546248;" parent="1" source="RZPR3kIjlsMWi17amMFl-61" target="qL_LGEdb0NVFimi9Nnbc-24" edge="1">
          <mxGeometry relative="1" as="geometry" />
        </mxCell>
        <mxCell id="RZPR3kIjlsMWi17amMFl-61" value="Házszám" style="ellipse;whiteSpace=wrap;html=1;fontFamily=Calibri;fillColor=#d5e8d4;strokeColor=#546248;" parent="1" vertex="1">
          <mxGeometry x="230" y="690" width="80" height="50" as="geometry" />
        </mxCell>
        <mxCell id="1YvyH126ldd-et75dgN8-2" style="rounded=0;orthogonalLoop=1;jettySize=auto;html=1;exitX=1;exitY=0;exitDx=0;exitDy=0;entryX=0;entryY=1;entryDx=0;entryDy=0;endArrow=none;endFill=0;strokeColor=#546248;" parent="1" source="1YvyH126ldd-et75dgN8-1" target="qL_LGEdb0NVFimi9Nnbc-9" edge="1">
          <mxGeometry relative="1" as="geometry" />
        </mxCell>
        <mxCell id="1YvyH126ldd-et75dgN8-1" value="Mennyiség" style="ellipse;whiteSpace=wrap;html=1;fontFamily=Calibri;fillColor=#d5e8d4;strokeColor=#546248;" parent="1" vertex="1">
          <mxGeometry x="240" y="530" width="80" height="50" as="geometry" />
        </mxCell>
        <mxCell id="1YvyH126ldd-et75dgN8-10" style="rounded=0;orthogonalLoop=1;jettySize=auto;html=1;exitX=1;exitY=0.5;exitDx=0;exitDy=0;entryX=0;entryY=0.5;entryDx=0;entryDy=0;endArrow=none;endFill=0;strokeColor=#546248;" parent="1" source="1YvyH126ldd-et75dgN8-3" target="1YvyH126ldd-et75dgN8-8" edge="1">
          <mxGeometry relative="1" as="geometry" />
        </mxCell>
        <mxCell id="1YvyH126ldd-et75dgN8-3" value="Műfaj" style="rounded=0;whiteSpace=wrap;html=1;fontFamily=Calibri;fillColor=#d5e8d4;strokeColor=#546248;" parent="1" vertex="1">
          <mxGeometry x="-70" y="315" width="120" height="60" as="geometry" />
        </mxCell>
        <mxCell id="1YvyH126ldd-et75dgN8-4" value="Tartozik" style="rhombus;whiteSpace=wrap;html=1;fontFamily=Calibri;fillColor=#d5e8d4;strokeColor=#546248;" parent="1" vertex="1">
          <mxGeometry x="40" y="390" width="120" height="60" as="geometry" />
        </mxCell>
        <mxCell id="1YvyH126ldd-et75dgN8-5" style="rounded=0;orthogonalLoop=1;jettySize=auto;html=1;exitX=0;exitY=0.5;exitDx=0;exitDy=0;entryX=1;entryY=0.5;entryDx=0;entryDy=0;endArrow=none;endFill=0;fontFamily=Calibri;fontColor=#546248;fillColor=#d5e8d4;strokeColor=#546248;" parent="1" source="qL_LGEdb0NVFimi9Nnbc-1" target="1YvyH126ldd-et75dgN8-4" edge="1">
          <mxGeometry relative="1" as="geometry">
            <mxPoint x="170" y="450" as="sourcePoint" />
            <mxPoint x="140" y="450" as="targetPoint" />
          </mxGeometry>
        </mxCell>
        <mxCell id="1YvyH126ldd-et75dgN8-8" value="&lt;u&gt;Megnevezés&lt;/u&gt;" style="ellipse;whiteSpace=wrap;html=1;fontFamily=Calibri;fillColor=#d5e8d4;strokeColor=#546248;" parent="1" vertex="1">
          <mxGeometry x="70" y="320" width="80" height="50" as="geometry" />
        </mxCell>
        <mxCell id="1YvyH126ldd-et75dgN8-17" value="Eladott példányok száma" style="ellipse;whiteSpace=wrap;html=1;fontFamily=Calibri;fillColor=#d5e8d4;strokeColor=#546248;" parent="1" vertex="1">
          <mxGeometry x="635" y="375" width="80" height="50" as="geometry" />
        </mxCell>
        <mxCell id="1YvyH126ldd-et75dgN8-18" style="rounded=0;orthogonalLoop=1;jettySize=auto;html=1;exitX=0;exitY=0.5;exitDx=0;exitDy=0;endArrow=none;endFill=0;strokeColor=#546248;" parent="1" source="1YvyH126ldd-et75dgN8-17" target="qL_LGEdb0NVFimi9Nnbc-1" edge="1">
          <mxGeometry relative="1" as="geometry" />
        </mxCell>
        <mxCell id="UofxTASj_F71TdPfPJub-2" value="&lt;span style=&quot;font-family: Calibri;&quot;&gt;Alműfaj&lt;/span&gt;" style="ellipse;shape=doubleEllipse;margin=3;whiteSpace=wrap;html=1;align=center;fillColor=#d5e8d4;strokeColor=#546248;" parent="1" vertex="1">
          <mxGeometry x="-50" y="240" width="80" height="50" as="geometry" />
        </mxCell>
        <mxCell id="UofxTASj_F71TdPfPJub-4" value="&lt;span style=&quot;font-family: Calibri;&quot;&gt;Szerzők&lt;/span&gt;" style="ellipse;shape=doubleEllipse;margin=3;whiteSpace=wrap;html=1;align=center;fillColor=#d5e8d4;strokeColor=#546248;" parent="1" vertex="1">
          <mxGeometry x="520" y="410" width="80" height="50" as="geometry" />
        </mxCell>
        <mxCell id="LbvgSZ2cEiDhtgz9kHBv-1" value="Név" style="ellipse;whiteSpace=wrap;html=1;fontFamily=Calibri;fillColor=#d5e8d4;strokeColor=#546248;" vertex="1" parent="1">
          <mxGeometry x="160" y="480" width="80" height="50" as="geometry" />
        </mxCell>
        <mxCell id="LbvgSZ2cEiDhtgz9kHBv-2" style="rounded=0;orthogonalLoop=1;jettySize=auto;html=1;exitX=0.5;exitY=0;exitDx=0;exitDy=0;entryX=0;entryY=1;entryDx=0;entryDy=0;endArrow=none;endFill=0;fontFamily=Calibri;fontColor=#546248;fillColor=#d5e8d4;strokeColor=#546248;" edge="1" parent="1" source="LbvgSZ2cEiDhtgz9kHBv-1" target="qL_LGEdb0NVFimi9Nnbc-1">
          <mxGeometry relative="1" as="geometry">
            <mxPoint x="228" y="447" as="sourcePoint" />
            <mxPoint x="340" y="445" as="targetPoint" />
          </mxGeometry>
        </mxCell>
        <mxCell id="LbvgSZ2cEiDhtgz9kHBv-3" value="Darabszám" style="ellipse;whiteSpace=wrap;html=1;fontFamily=Calibri;fillColor=#d5e8d4;strokeColor=#546248;" vertex="1" parent="1">
          <mxGeometry x="600" y="260" width="80" height="50" as="geometry" />
        </mxCell>
        <mxCell id="LbvgSZ2cEiDhtgz9kHBv-4" style="rounded=0;orthogonalLoop=1;jettySize=auto;html=1;endArrow=none;endFill=0;fontFamily=Calibri;fontColor=#546248;fillColor=#d5e8d4;strokeColor=#546248;entryX=0;entryY=0.5;entryDx=0;entryDy=0;" edge="1" parent="1" target="LbvgSZ2cEiDhtgz9kHBv-3">
          <mxGeometry relative="1" as="geometry">
            <mxPoint x="550" y="285" as="sourcePoint" />
            <mxPoint x="600" y="284.66" as="targetPoint" />
          </mxGeometry>
        </mxCell>
      </root>
    </mxGraphModel>
  </diagram>
</mxfile>
